<mxfile host="app.diagrams.net" agent="Mozilla/5.0 (Windows NT 10.0; Win64; x64) AppleWebKit/537.36 (KHTML, like Gecko) Chrome/129.0.0.0 Safari/537.36" version="24.7.17">
  <diagram name="Page-1" id="8oGJ7NpcORCgEtJc2_g0">
    <mxGraphModel dx="1050" dy="565" grid="0" gridSize="10" guides="1" tooltips="1" connect="1" arrows="1" fold="1" page="1" pageScale="1" pageWidth="827" pageHeight="1169" math="0" shadow="0">
      <root>
        <mxCell id="0" />
        <mxCell id="1" parent="0" />
        <mxCell id="BL0J6M0WH8wEfLPxntTr-31" value="Tram" style="swimlane;fontStyle=1;align=center;verticalAlign=top;childLayout=stackLayout;horizontal=1;startSize=26;horizontalStack=0;resizeParent=1;resizeParentMax=0;resizeLast=0;collapsible=1;marginBottom=0;whiteSpace=wrap;html=1;" vertex="1" parent="1">
          <mxGeometry x="368" y="295" width="160" height="142" as="geometry" />
        </mxCell>
        <mxCell id="BL0J6M0WH8wEfLPxntTr-32" value="+ id : Number&lt;div&gt;+ model : String&lt;/div&gt;&lt;div&gt;+ status : String&lt;/div&gt;" style="text;strokeColor=none;fillColor=none;align=left;verticalAlign=top;spacingLeft=4;spacingRight=4;overflow=hidden;rotatable=0;points=[[0,0.5],[1,0.5]];portConstraint=eastwest;whiteSpace=wrap;html=1;" vertex="1" parent="BL0J6M0WH8wEfLPxntTr-31">
          <mxGeometry y="26" width="160" height="56" as="geometry" />
        </mxCell>
        <mxCell id="BL0J6M0WH8wEfLPxntTr-33" value="" style="line;strokeWidth=1;fillColor=none;align=left;verticalAlign=middle;spacingTop=-1;spacingLeft=3;spacingRight=3;rotatable=0;labelPosition=right;points=[];portConstraint=eastwest;strokeColor=inherit;" vertex="1" parent="BL0J6M0WH8wEfLPxntTr-31">
          <mxGeometry y="82" width="160" height="8" as="geometry" />
        </mxCell>
        <mxCell id="BL0J6M0WH8wEfLPxntTr-34" value="+ takeOnRepairs()&lt;div&gt;+ removeFromRepairs()&lt;/div&gt;" style="text;strokeColor=none;fillColor=none;align=left;verticalAlign=top;spacingLeft=4;spacingRight=4;overflow=hidden;rotatable=0;points=[[0,0.5],[1,0.5]];portConstraint=eastwest;whiteSpace=wrap;html=1;" vertex="1" parent="BL0J6M0WH8wEfLPxntTr-31">
          <mxGeometry y="90" width="160" height="52" as="geometry" />
        </mxCell>
        <mxCell id="BL0J6M0WH8wEfLPxntTr-35" value="Chief Engineer" style="swimlane;fontStyle=1;align=center;verticalAlign=top;childLayout=stackLayout;horizontal=1;startSize=26;horizontalStack=0;resizeParent=1;resizeParentMax=0;resizeLast=0;collapsible=1;marginBottom=0;whiteSpace=wrap;html=1;" vertex="1" parent="1">
          <mxGeometry x="338" y="55" width="160" height="142" as="geometry" />
        </mxCell>
        <mxCell id="BL0J6M0WH8wEfLPxntTr-36" value="+ id : Number&lt;div&gt;+ name : String&lt;/div&gt;" style="text;strokeColor=none;fillColor=none;align=left;verticalAlign=top;spacingLeft=4;spacingRight=4;overflow=hidden;rotatable=0;points=[[0,0.5],[1,0.5]];portConstraint=eastwest;whiteSpace=wrap;html=1;" vertex="1" parent="BL0J6M0WH8wEfLPxntTr-35">
          <mxGeometry y="26" width="160" height="56" as="geometry" />
        </mxCell>
        <mxCell id="BL0J6M0WH8wEfLPxntTr-37" value="" style="line;strokeWidth=1;fillColor=none;align=left;verticalAlign=middle;spacingTop=-1;spacingLeft=3;spacingRight=3;rotatable=0;labelPosition=right;points=[];portConstraint=eastwest;strokeColor=inherit;" vertex="1" parent="BL0J6M0WH8wEfLPxntTr-35">
          <mxGeometry y="82" width="160" height="8" as="geometry" />
        </mxCell>
        <mxCell id="BL0J6M0WH8wEfLPxntTr-38" value="+ repair()&lt;div&gt;+ check()&lt;/div&gt;" style="text;strokeColor=none;fillColor=none;align=left;verticalAlign=top;spacingLeft=4;spacingRight=4;overflow=hidden;rotatable=0;points=[[0,0.5],[1,0.5]];portConstraint=eastwest;whiteSpace=wrap;html=1;" vertex="1" parent="BL0J6M0WH8wEfLPxntTr-35">
          <mxGeometry y="90" width="160" height="52" as="geometry" />
        </mxCell>
        <mxCell id="BL0J6M0WH8wEfLPxntTr-39" value="Inspection" style="swimlane;fontStyle=1;align=center;verticalAlign=top;childLayout=stackLayout;horizontal=1;startSize=26;horizontalStack=0;resizeParent=1;resizeParentMax=0;resizeLast=0;collapsible=1;marginBottom=0;whiteSpace=wrap;html=1;" vertex="1" parent="1">
          <mxGeometry x="87" y="56" width="160" height="142" as="geometry" />
        </mxCell>
        <mxCell id="BL0J6M0WH8wEfLPxntTr-40" value="+ id : Number&lt;div&gt;+ date : DateTime&lt;/div&gt;&lt;div&gt;+ result : String&lt;/div&gt;" style="text;strokeColor=none;fillColor=none;align=left;verticalAlign=top;spacingLeft=4;spacingRight=4;overflow=hidden;rotatable=0;points=[[0,0.5],[1,0.5]];portConstraint=eastwest;whiteSpace=wrap;html=1;" vertex="1" parent="BL0J6M0WH8wEfLPxntTr-39">
          <mxGeometry y="26" width="160" height="56" as="geometry" />
        </mxCell>
        <mxCell id="BL0J6M0WH8wEfLPxntTr-41" value="" style="line;strokeWidth=1;fillColor=none;align=left;verticalAlign=middle;spacingTop=-1;spacingLeft=3;spacingRight=3;rotatable=0;labelPosition=right;points=[];portConstraint=eastwest;strokeColor=inherit;" vertex="1" parent="BL0J6M0WH8wEfLPxntTr-39">
          <mxGeometry y="82" width="160" height="8" as="geometry" />
        </mxCell>
        <mxCell id="BL0J6M0WH8wEfLPxntTr-42" value="+ check()" style="text;strokeColor=none;fillColor=none;align=left;verticalAlign=top;spacingLeft=4;spacingRight=4;overflow=hidden;rotatable=0;points=[[0,0.5],[1,0.5]];portConstraint=eastwest;whiteSpace=wrap;html=1;" vertex="1" parent="BL0J6M0WH8wEfLPxntTr-39">
          <mxGeometry y="90" width="160" height="52" as="geometry" />
        </mxCell>
        <mxCell id="BL0J6M0WH8wEfLPxntTr-43" value="Repair" style="swimlane;fontStyle=1;align=center;verticalAlign=top;childLayout=stackLayout;horizontal=1;startSize=26;horizontalStack=0;resizeParent=1;resizeParentMax=0;resizeLast=0;collapsible=1;marginBottom=0;whiteSpace=wrap;html=1;" vertex="1" parent="1">
          <mxGeometry x="590" y="50" width="160" height="152" as="geometry" />
        </mxCell>
        <mxCell id="BL0J6M0WH8wEfLPxntTr-44" value="+ id : Number&lt;div&gt;+ startDate : DateTime&lt;/div&gt;&lt;div&gt;+ endDate : DateTime&lt;br&gt;&lt;/div&gt;&lt;div&gt;+ status: String&lt;/div&gt;" style="text;strokeColor=none;fillColor=none;align=left;verticalAlign=top;spacingLeft=4;spacingRight=4;overflow=hidden;rotatable=0;points=[[0,0.5],[1,0.5]];portConstraint=eastwest;whiteSpace=wrap;html=1;" vertex="1" parent="BL0J6M0WH8wEfLPxntTr-43">
          <mxGeometry y="26" width="160" height="66" as="geometry" />
        </mxCell>
        <mxCell id="BL0J6M0WH8wEfLPxntTr-45" value="" style="line;strokeWidth=1;fillColor=none;align=left;verticalAlign=middle;spacingTop=-1;spacingLeft=3;spacingRight=3;rotatable=0;labelPosition=right;points=[];portConstraint=eastwest;strokeColor=inherit;" vertex="1" parent="BL0J6M0WH8wEfLPxntTr-43">
          <mxGeometry y="92" width="160" height="8" as="geometry" />
        </mxCell>
        <mxCell id="BL0J6M0WH8wEfLPxntTr-46" value="+ startRepair()&lt;div&gt;+ endRepair()&lt;/div&gt;" style="text;strokeColor=none;fillColor=none;align=left;verticalAlign=top;spacingLeft=4;spacingRight=4;overflow=hidden;rotatable=0;points=[[0,0.5],[1,0.5]];portConstraint=eastwest;whiteSpace=wrap;html=1;" vertex="1" parent="BL0J6M0WH8wEfLPxntTr-43">
          <mxGeometry y="100" width="160" height="52" as="geometry" />
        </mxCell>
        <mxCell id="BL0J6M0WH8wEfLPxntTr-47" value="Sensor" style="swimlane;fontStyle=1;align=center;verticalAlign=top;childLayout=stackLayout;horizontal=1;startSize=26;horizontalStack=0;resizeParent=1;resizeParentMax=0;resizeLast=0;collapsible=1;marginBottom=0;whiteSpace=wrap;html=1;" vertex="1" parent="1">
          <mxGeometry x="82" y="295" width="160" height="142" as="geometry" />
        </mxCell>
        <mxCell id="BL0J6M0WH8wEfLPxntTr-48" value="+ id : Number&lt;div&gt;+ defect: String&lt;/div&gt;" style="text;strokeColor=none;fillColor=none;align=left;verticalAlign=top;spacingLeft=4;spacingRight=4;overflow=hidden;rotatable=0;points=[[0,0.5],[1,0.5]];portConstraint=eastwest;whiteSpace=wrap;html=1;" vertex="1" parent="BL0J6M0WH8wEfLPxntTr-47">
          <mxGeometry y="26" width="160" height="56" as="geometry" />
        </mxCell>
        <mxCell id="BL0J6M0WH8wEfLPxntTr-49" value="" style="line;strokeWidth=1;fillColor=none;align=left;verticalAlign=middle;spacingTop=-1;spacingLeft=3;spacingRight=3;rotatable=0;labelPosition=right;points=[];portConstraint=eastwest;strokeColor=inherit;" vertex="1" parent="BL0J6M0WH8wEfLPxntTr-47">
          <mxGeometry y="82" width="160" height="8" as="geometry" />
        </mxCell>
        <mxCell id="BL0J6M0WH8wEfLPxntTr-50" value="+ checkDefects()" style="text;strokeColor=none;fillColor=none;align=left;verticalAlign=top;spacingLeft=4;spacingRight=4;overflow=hidden;rotatable=0;points=[[0,0.5],[1,0.5]];portConstraint=eastwest;whiteSpace=wrap;html=1;" vertex="1" parent="BL0J6M0WH8wEfLPxntTr-47">
          <mxGeometry y="90" width="160" height="52" as="geometry" />
        </mxCell>
        <mxCell id="BL0J6M0WH8wEfLPxntTr-60" value="" style="endArrow=none;html=1;rounded=0;exitX=0;exitY=0.5;exitDx=0;exitDy=0;entryX=1;entryY=0.5;entryDx=0;entryDy=0;" edge="1" parent="1" source="BL0J6M0WH8wEfLPxntTr-36" target="BL0J6M0WH8wEfLPxntTr-40">
          <mxGeometry width="50" height="50" relative="1" as="geometry">
            <mxPoint x="416" y="229" as="sourcePoint" />
            <mxPoint x="466" y="179" as="targetPoint" />
          </mxGeometry>
        </mxCell>
        <mxCell id="BL0J6M0WH8wEfLPxntTr-61" value="1" style="text;html=1;align=center;verticalAlign=middle;resizable=0;points=[];autosize=1;strokeColor=none;fillColor=none;" vertex="1" parent="1">
          <mxGeometry x="310" y="86" width="30" height="30" as="geometry" />
        </mxCell>
        <mxCell id="BL0J6M0WH8wEfLPxntTr-63" value="" style="endArrow=none;html=1;rounded=0;entryX=0;entryY=0.5;entryDx=0;entryDy=0;exitX=1;exitY=0.5;exitDx=0;exitDy=0;" edge="1" parent="1" source="BL0J6M0WH8wEfLPxntTr-36" target="BL0J6M0WH8wEfLPxntTr-44">
          <mxGeometry width="50" height="50" relative="1" as="geometry">
            <mxPoint x="416" y="229" as="sourcePoint" />
            <mxPoint x="466" y="179" as="targetPoint" />
          </mxGeometry>
        </mxCell>
        <mxCell id="BL0J6M0WH8wEfLPxntTr-64" value="1" style="text;html=1;align=center;verticalAlign=middle;resizable=0;points=[];autosize=1;strokeColor=none;fillColor=none;" vertex="1" parent="1">
          <mxGeometry x="498" y="83" width="30" height="30" as="geometry" />
        </mxCell>
        <mxCell id="BL0J6M0WH8wEfLPxntTr-72" style="edgeStyle=orthogonalEdgeStyle;rounded=0;orthogonalLoop=1;jettySize=auto;html=1;entryX=0;entryY=0.5;entryDx=0;entryDy=0;endArrow=diamondThin;endFill=0;exitX=1;exitY=0.5;exitDx=0;exitDy=0;" edge="1" parent="1" source="BL0J6M0WH8wEfLPxntTr-48" target="BL0J6M0WH8wEfLPxntTr-32">
          <mxGeometry relative="1" as="geometry">
            <mxPoint x="409.41999999999996" y="335.78999999999996" as="sourcePoint" />
            <mxPoint x="409.41999999999996" y="228.78999999999996" as="targetPoint" />
          </mxGeometry>
        </mxCell>
        <mxCell id="BL0J6M0WH8wEfLPxntTr-75" value="" style="endArrow=none;html=1;rounded=0;exitX=0.5;exitY=0;exitDx=0;exitDy=0;edgeStyle=orthogonalEdgeStyle;" edge="1" parent="1" source="BL0J6M0WH8wEfLPxntTr-31" target="BL0J6M0WH8wEfLPxntTr-42">
          <mxGeometry width="50" height="50" relative="1" as="geometry">
            <mxPoint x="482" y="256" as="sourcePoint" />
            <mxPoint x="532" y="206" as="targetPoint" />
            <Array as="points">
              <mxPoint x="403" y="295" />
              <mxPoint x="403" y="241" />
              <mxPoint x="154" y="241" />
            </Array>
          </mxGeometry>
        </mxCell>
        <mxCell id="BL0J6M0WH8wEfLPxntTr-77" value="" style="endArrow=none;html=1;rounded=0;exitX=0.5;exitY=0;exitDx=0;exitDy=0;entryX=0.579;entryY=0.942;entryDx=0;entryDy=0;entryPerimeter=0;edgeStyle=orthogonalEdgeStyle;" edge="1" parent="1" source="BL0J6M0WH8wEfLPxntTr-31" target="BL0J6M0WH8wEfLPxntTr-46">
          <mxGeometry width="50" height="50" relative="1" as="geometry">
            <mxPoint x="482" y="256" as="sourcePoint" />
            <mxPoint x="532" y="206" as="targetPoint" />
            <Array as="points">
              <mxPoint x="479" y="295" />
              <mxPoint x="479" y="243" />
              <mxPoint x="681" y="243" />
              <mxPoint x="681" y="199" />
            </Array>
          </mxGeometry>
        </mxCell>
        <mxCell id="BL0J6M0WH8wEfLPxntTr-79" value="1" style="text;html=1;align=center;verticalAlign=middle;resizable=0;points=[];autosize=1;strokeColor=none;fillColor=none;" vertex="1" parent="1">
          <mxGeometry x="377" y="269" width="30" height="30" as="geometry" />
        </mxCell>
        <mxCell id="BL0J6M0WH8wEfLPxntTr-80" value="1" style="text;html=1;align=center;verticalAlign=middle;resizable=0;points=[];autosize=1;strokeColor=none;fillColor=none;" vertex="1" parent="1">
          <mxGeometry x="147" y="193" width="30" height="30" as="geometry" />
        </mxCell>
        <mxCell id="BL0J6M0WH8wEfLPxntTr-83" value="1" style="text;html=1;align=center;verticalAlign=middle;resizable=0;points=[];autosize=1;strokeColor=none;fillColor=none;" vertex="1" parent="1">
          <mxGeometry x="481" y="265" width="30" height="30" as="geometry" />
        </mxCell>
        <mxCell id="BL0J6M0WH8wEfLPxntTr-84" value="1" style="text;html=1;align=center;verticalAlign=middle;resizable=0;points=[];autosize=1;strokeColor=none;fillColor=none;" vertex="1" parent="1">
          <mxGeometry x="655" y="197" width="30" height="30" as="geometry" />
        </mxCell>
      </root>
    </mxGraphModel>
  </diagram>
</mxfile>
